<?xml version="1.0" encoding="utf-8"?>
<!-- Generator: Adobe Illustrator 24.2.0, SVG Export Plug-In . SVG Version: 6.00 Build 0)  -->
<svg version="1.1" id="Camada_1" xmlns="http://www.w3.org/2000/svg" xmlns:xlink="http://www.w3.org/1999/xlink" x="0px" y="0px"
	 viewBox="0 0 96 105" style="enable-background:new 0 0 96 105;" xml:space="preserve">
<style type="text/css">
	.st0{fill:#C3B6D3;}
	.st1{fill:#E7DFEF;}
	.st2{fill:#8310DD;}
</style>





<g>
	<polygon class="st0" points="87,36 87,27 69,27 27,27 9,27 9,36 0,36 0,96 9,96 9,105 27,105 69,105 87,105 87,96 96,96 96,36 	"/>
	<polygon class="st1" points="87,9 87,0 69,0 27,0 9,0 9,9 0,9 0,18 0,27 0,69 0,78 0,87 9,87 9,96 27,96 69,96 87,96 87,87 96,87 
		96,69 96,27 96,9 	"/>
</g>

<svg version="1.1" id="Camada_1" xmlns="http://www.w3.org/2000/svg" xmlns:xlink="http://www.w3.org/1999/xlink" x="0px" y="0px"
	 viewBox="0 -18 20.1 82.2" style="enable-background:new 0 0 20.1 42.2;" xml:space="preserve">

<g>
	<g>
		<path class="st2" d="M7.6,2.4H5.7V0h6l6.7,15.3h1.6v2.5h-6.6v-2.5h2.1c-0.5-0.9-0.8-1.9-1.1-2.6H5.7c-0.3,0.7-0.8,1.7-1.2,2.6h2.1
			v2.5H0v-2.5h1.6L7.6,2.4z M13.4,10.3c-0.9-2.1-1.8-4.3-3.2-7.7c-1.5,3.5-2.6,5.6-3.5,7.7H13.4z"/>
		<path class="st0" d="M5.8,29.4H3.3v-5h12.6v1.2L6.5,39.7h7.3l0.1-2.9h2.4v5.5H2.7v-1.4l9.2-13.8H5.8L5.8,29.4z"/>
	</g>
</g>
</svg>
</svg>


